<svg xmlns="http://www.w3.org/2000/svg" viewBox="0 0 64 64" width="64" height="64" role="img" aria-label="Research paper"><title>Research paper</title>
<g transform="translate(32,32) scale(0.9046) translate(-30.500,-34.500)"><defs><mask id="p"><rect width="64" height="64" fill="#fff"/>
  <rect x="20" y="30" width="18" height="3.4" rx="1.7" fill="#000"/>
  <rect x="20" y="37.5" width="18" height="3.4" rx="1.7" fill="#000"/>
  <rect x="20" y="45" width="11" height="3.4" rx="1.7" fill="#000"/></mask></defs>
<path d="M17 9 h20 l12 12 v34 a5 5 0 0 1 -5 5 H17 a5 5 0 0 1 -5 -5 V14 a5 5 0 0 1 5 -5 Z" fill="#2f2f3a" mask="url(#p)"/>
<path d="M37.5 9.5 L48.5 20.5 H41 a3.5 3.5 0 0 1 -3.5 -3.5 Z" fill="#800080"/></g>
</svg>
