<?xml version="1.0" standalone="no"?>
<!DOCTYPE svg PUBLIC "-//W3C//DTD SVG 20010904//EN"
 "http://www.w3.org/TR/2001/REC-SVG-20010904/DTD/svg10.dtd">
<svg version="1.0" xmlns="http://www.w3.org/2000/svg"
 width="118.000000pt" height="118.000000pt" viewBox="0 0 118.000000 118.000000"
 preserveAspectRatio="xMidYMid meet">
<metadata>
Created by potrace 1.16, written by Peter Selinger 2001-2019
</metadata>
<g transform="translate(0.000000,118.000000) scale(0.100000,-0.100000)"
fill="#000000" stroke="none">
<path d="M590 1127 l0 -53 -71 -11 c-203 -32 -365 -191 -399 -392 l-12 -71
-54 0 -54 0 0 -54 c0 -116 70 -273 163 -368 112 -113 235 -168 397 -175 181
-9 325 45 448 167 119 117 172 248 172 423 0 172 -52 300 -170 417 -103 104
-245 170 -362 170 l-58 0 0 -53z m-60 -597 c0 -220 -3 -400 -7 -400 -20 0
-105 31 -151 54 -62 32 -149 116 -184 179 -30 53 -54 123 -62 185 l-6 42 59 0
60 0 11 58 c16 77 49 138 102 189 40 39 136 93 166 93 9 0 12 -87 12 -400z
m217 367 c90 -43 163 -143 185 -253 l11 -54 59 0 59 0 -7 -47 c-28 -191 -159
-345 -337 -398 -28 -8 -51 -14 -52 -12 -4 4 -9 462 -7 630 l2 168 23 -6 c12
-4 41 -16 64 -28z"/>
</g>
</svg>
