<?xml version="1.0" standalone="no"?>
<!DOCTYPE svg PUBLIC "-//W3C//DTD SVG 20010904//EN"
 "http://www.w3.org/TR/2001/REC-SVG-20010904/DTD/svg10.dtd">
<svg version="1.0" xmlns="http://www.w3.org/2000/svg"
 width="107.000000pt" height="107.000000pt" viewBox="0 0 107.000000 107.000000"
 preserveAspectRatio="xMidYMid meet">
<metadata>
Created by potrace 1.16, written by Peter Selinger 2001-2019
</metadata>
<g transform="translate(0.000000,107.000000) scale(0.100000,-0.100000)"
fill="#000000" stroke="none">
<path d="M530 1011 l0 -61 -32 0 c-111 0 -248 -83 -318 -192 -34 -53 -46 -86
-65 -185 -6 -32 -8 -33 -61 -33 l-54 0 0 -49 c0 -59 30 -160 67 -227 35 -63
134 -162 197 -197 82 -46 168 -67 270 -67 153 0 273 49 377 152 170 171 205
421 89 648 -29 58 -142 171 -200 200 -67 34 -144 58 -210 66 l-60 7 0 -62z
m-60 -336 l0 -135 -114 0 -114 0 12 54 c14 58 41 109 78 143 28 26 108 73 126
73 9 0 12 -34 12 -135z m200 110 c46 -24 110 -98 130 -152 35 -94 37 -93 -90
-93 l-110 0 0 136 0 135 23 -7 c12 -3 33 -12 47 -19z m-200 -515 c0 -77 -1
-140 -3 -140 -20 0 -113 40 -152 65 -72 47 -138 126 -159 193 l-7 22 160 0
161 0 0 -140z m440 115 c-41 -109 -156 -211 -272 -243 l-38 -10 0 139 0 139
160 0 160 0 -10 -25z"/>
</g>
</svg>
